<svg xmlns="http://www.w3.org/2000/svg" width="38.693" height="38.496" viewBox="0 0 38.693 38.496">
  <g id="Group_26" data-name="Group 26" transform="translate(-623 -86)">
    <path id="Path_19" data-name="Path 19" d="M651.91,100.455a14.455,14.455,0,1,0-14.455,14.455A14.471,14.471,0,0,0,651.91,100.455Zm-14.455,13.01a13.01,13.01,0,1,1,13.01-13.01A13.025,13.025,0,0,1,637.455,113.465Z" fill="#424242"/>
    <path id="Path_20" data-name="Path 20" d="M636.543,92.449a10.124,10.124,0,0,0-6.191,14.845.725.725,0,0,0,.627.361.711.711,0,0,0,.361-.1.722.722,0,0,0,.265-.987,8.678,8.678,0,0,1,5.306-12.723.723.723,0,0,0-.367-1.4Z" transform="translate(-1.663 -1.781)" fill="#424242"/>
    <path id="Path_21" data-name="Path 21" d="M670.241,128.375l-8.3-8.3a2.224,2.224,0,0,0-3.066,0l-1.534,1.534a2.171,2.171,0,0,0,0,3.066l8.3,8.3a2.954,2.954,0,0,0,2.06.8,2.685,2.685,0,0,0,1.088-.22l.122-.055,1.856-1.855.054-.122A2.994,2.994,0,0,0,670.241,128.375Zm-.7,2.449-1.451,1.451a1.627,1.627,0,0,1-1.428-.323l-8.3-8.3a.723.723,0,0,1,0-1.022L659.9,121.1a.726.726,0,0,1,1.022,0l8.3,8.3A1.571,1.571,0,0,1,669.541,130.824Z" transform="translate(-9.346 -9.278)" fill="#424242"/>
  </g>
</svg>
