<svg xmlns="http://www.w3.org/2000/svg" width="22.388" height="34.408" viewBox="0 0 22.388 34.408">
  <g id="Group_41" data-name="Group 41" transform="translate(-22.306 -65.796)">
    <path id="Path_73" data-name="Path 73" d="M43.8,88.7h-1.51v0a.141.141,0,0,1-.02,0H34.849a.9.9,0,1,0,0,1.791H35.4V99.3a.9.9,0,0,0,.9.9h5.949a.9.9,0,0,0,.9-.9V90.492H43.8a.9.9,0,1,0,0-1.791Zm-2.453,7.19V98.4H37.2V90.5h4.149Z" fill="#424242"/>
    <path id="Path_74" data-name="Path 74" d="M27.53,75.418l.116-.009a3.4,3.4,0,0,0,3.013-2.244c.775-2.418-1.352-5.869-2.663-7.18a.644.644,0,0,0-1.085.593c.182.83-.435,1.687-1.088,2.594a5.579,5.579,0,0,0-1.4,3.153A2.992,2.992,0,0,0,27.53,75.418Zm-.662-5.493A8.878,8.878,0,0,0,28,68.037c.949,1.4,1.853,3.419,1.431,4.736a2.185,2.185,0,0,1-1.945,1.357,1.7,1.7,0,0,1-1.781-1.805A4.631,4.631,0,0,1,26.868,69.925Z" fill="#424242"/>
    <path id="Path_75" data-name="Path 75" d="M39.176,75.418l.117-.009a3.4,3.4,0,0,0,3.013-2.244c.774-2.418-1.353-5.869-2.664-7.18a.644.644,0,0,0-1.085.593c.182.83-.435,1.687-1.088,2.594a5.577,5.577,0,0,0-1.4,3.153A2.991,2.991,0,0,0,39.176,75.418Zm-.661-5.493a8.874,8.874,0,0,0,1.133-1.888c.949,1.4,1.853,3.419,1.431,4.736a2.185,2.185,0,0,1-1.945,1.357,1.7,1.7,0,0,1-1.78-1.805A4.631,4.631,0,0,1,38.515,69.925Z" fill="#424242"/>
    <g id="Group_39" data-name="Group 39">
      <path id="Path_76" data-name="Path 76" d="M30.641,88.705v0h-.02A.175.175,0,0,0,30.641,88.705Z" fill="#424242"/>
      <path id="Path_78" data-name="Path 78" d="M26.53,79.676a1.156,1.156,0,0,1,2.311,0v8.75h1.8v-8.75a2.956,2.956,0,1,0-5.911,0v8.75h1.8Z" fill="#424242"/>
      <path id="Path_79" data-name="Path 79" d="M32.152,88.7H30.641v0a.175.175,0,0,1-.02,0H23.2a.9.9,0,1,0,0,1.791h.547V99.3a.9.9,0,0,0,.9.9H30.6a.9.9,0,0,0,.9-.9V90.492h.653a.9.9,0,0,0,0-1.791ZM29.7,95.891V98.4h-4.15V90.5H29.7Z" fill="#424242"/>
      <path id="Path_80" data-name="Path 80" d="M28.841,88.7v0h1.78c-.007,0-.014,0-.022,0Z" fill="#424242"/>
      <path id="Path_81" data-name="Path 81" d="M24.73,88.7h-.081c-.008,0-.015,0-.022,0h.1Z" fill="#424242"/>
      <rect id="Rectangle_19" data-name="Rectangle 19" width="2.312" height="0.005" transform="translate(26.53 88.697)" fill="#424242"/>
      <rect id="Rectangle_20" data-name="Rectangle 20" width="1.8" height="0.005" transform="translate(24.73 88.697)" fill="#424242"/>
    </g>
    <g id="Group_40" data-name="Group 40">
      <path id="Path_83" data-name="Path 83" d="M42.268,88.7h.02v0h-.043C42.253,88.7,42.26,88.7,42.268,88.7Z" fill="#424242"/>
      <path id="Path_84" data-name="Path 84" d="M38.176,79.676a1.156,1.156,0,0,1,2.312,0v8.75h1.8v-8.75a2.956,2.956,0,1,0-5.912,0v8.75h1.8Z" fill="#424242"/>
    </g>
  </g>
</svg>
