<svg xmlns="http://www.w3.org/2000/svg" width="37.151" height="37.579" viewBox="0 0 37.151 37.579">
  <g id="Group_29" data-name="Group 29" transform="translate(-63 -565.996)">
    <path id="Path_33" data-name="Path 33" d="M79.073,595.305a.669.669,0,0,0,.161-.05,2.2,2.2,0,0,0,.463.054H96.4a2.928,2.928,0,0,0,2.554-1.73l4.534-11.333A1.568,1.568,0,0,0,101.965,580H76.218a1.73,1.73,0,0,0-1.729,2.215l2.8,11.217a2.36,2.36,0,0,0,.5.942,4,4,0,0,0-1.534,2.1,2.213,2.213,0,0,0,.267,1.98A2.81,2.81,0,0,0,79,599.484h20.18a.7.7,0,1,0,0-1.392H79a1.677,1.677,0,0,1-1.34-.447.835.835,0,0,1-.091-.713C78.087,595.471,79.01,595.314,79.073,595.305Zm-3.234-13.428a.349.349,0,0,1,.379-.486h25.747a.208.208,0,0,1,.229.338L97.66,593.063a1.536,1.536,0,0,1-1.262.854H79.7a1.194,1.194,0,0,1-1.054-.823Z" transform="translate(-3.476 -4.259)" fill="#424242"/>
    <path id="Path_34" data-name="Path 34" d="M71.5,573.713l-1.384-4.58c-.662-2.609-2.58-3.186-3.458-3.134H63.7a.7.7,0,1,0,0,1.392h2.991c.159,0,1.546.006,2.083,2.115l1.392,4.61a.7.7,0,0,0,1.333-.4Z" transform="translate(0)" fill="#424242"/>
    <path id="Path_35" data-name="Path 35" d="M79.479,610a3.479,3.479,0,1,0,3.479,3.479A3.483,3.483,0,0,0,79.479,610Zm0,5.567a2.088,2.088,0,1,1,2.088-2.088A2.09,2.09,0,0,1,79.479,615.567Z" transform="translate(-3.954 -13.384)" fill="#424242"/>
    <path id="Path_36" data-name="Path 36" d="M103.479,610a3.479,3.479,0,1,0,3.479,3.479A3.483,3.483,0,0,0,103.479,610Zm0,5.567a2.088,2.088,0,1,1,2.088-2.088A2.09,2.09,0,0,1,103.479,615.567Z" transform="translate(-11.253 -13.384)" fill="#424242"/>
  </g>
</svg>
